<svg xmlns="http://www.w3.org/2000/svg" width="1005.524" height="1005.524" viewBox="0 0 1005.524 1005.524"><path d="M362.136,310.207l-31.342-289.8C329.552,8.622,322.267,0,313.742,0h-.587c-8.768.384-15.914,9.819-16.6,21.939L281.432,273.563c-.932,15.52-20.781,15.52-21.713,0L244.636,21.939C243.876,9.532,236.42,0,227.446,0s-16.465,9.532-17.19,21.939L195.137,273.563c-.932,15.52-20.781,15.52-21.713,0L158.339,21.939C157.614,9.868,150.469.431,141.7,0h-.552c-8.526,0-15.81,8.622-17.053,20.406l-31.308,289.8c-9.216,84.928,23.991,166.168,79.979,200.034L146.12,1028.53c-1.587,31.183,6.283,62.176,21.643,85.072,15.326,22.9,37.039,36.02,59.614,36.02h.138c22.541,0,44.288-13.124,59.648-36.022s23.23-53.889,21.643-85.072L282.157,510.241C338.147,476.375,371.352,395.135,362.136,310.207Z" transform="translate(748.374 -64.531) rotate(45)" fill="#e5dfdf"/></svg>